<svg width="84" height="64" viewBox="0 0 84 64" fill="none" xmlns="http://www.w3.org/2000/svg">
<path d="M67.9727 44.3141L65.6945 42.9922C66.5242 42.1273 67.5227 41.7125 67.5367 41.7055C68.0641 41.4945 68.3383 40.9039 68.1625 40.3625C68.0289 39.9477 67.6422 39.6734 67.2133 39.6734C67.0797 39.6734 66.9531 39.7016 66.8266 39.7508C66.7563 39.7789 65.1109 40.4539 63.8805 41.9445L57.1094 38.007L63.8805 34.0695C65.1109 35.5602 66.7492 36.2352 66.8266 36.2633C66.9531 36.3125 67.0797 36.3406 67.2133 36.3406C67.6422 36.3406 68.0289 36.0594 68.1625 35.6516C68.3383 35.1102 68.0641 34.5195 67.5367 34.3086C67.5297 34.3016 66.5313 33.8867 65.6945 33.0219L67.9727 31.7C68.4789 31.4047 68.6477 30.7578 68.3594 30.2516C68.1695 29.9211 67.818 29.7172 67.4383 29.7172C67.2555 29.7172 67.0656 29.7664 66.9039 29.8578L64.6399 31.1797C64.3234 30.0406 64.45 28.9719 64.457 28.9297C64.5344 28.3602 64.1688 27.8328 63.6133 27.7133C63.543 27.6992 63.4727 27.6922 63.4024 27.6922C62.9031 27.6922 62.4883 28.0578 62.4109 28.5641C62.3969 28.6414 62.1578 30.3922 62.8399 32.2344L56.0899 36.1719V29.1969C57.9813 28.8664 59.3805 27.7766 59.4438 27.7273C59.6617 27.5516 59.8024 27.3055 59.8234 27.0242C59.8445 26.743 59.7602 26.4758 59.5703 26.2648C59.3664 26.0398 59.0781 25.9062 58.7688 25.9062C58.5297 25.9062 58.2906 25.9906 58.1008 26.1383C58.0938 26.1453 57.243 26.7992 56.0899 27.0945V24.4367C56.0899 23.8602 55.5906 23.375 55 23.375C54.4094 23.375 53.9102 23.8602 53.9102 24.4367V27.0734C52.7641 26.7781 51.9133 26.1242 51.8992 26.1172C51.7094 25.9695 51.4774 25.8852 51.2313 25.8852C50.9219 25.8852 50.6336 26.0188 50.4297 26.2438C50.2399 26.4547 50.1484 26.7359 50.1766 27.0102C50.1977 27.2844 50.3383 27.5305 50.5563 27.7062C50.6195 27.7555 52.0188 28.8453 53.9102 29.1758V36.1508L47.1602 32.2133C47.8352 30.3852 47.5961 28.6203 47.582 28.543C47.5117 28.0367 47.0969 27.6711 46.5977 27.6711C46.5274 27.6711 46.457 27.6781 46.3867 27.6922C45.8313 27.8047 45.4586 28.3461 45.543 28.9086C45.543 28.9227 45.6836 29.9984 45.3602 31.1516L43.0891 29.8438C42.9274 29.7523 42.7445 29.7031 42.5547 29.7031C42.175 29.7031 41.8235 29.907 41.6336 30.2375C41.3453 30.7438 41.5141 31.3977 42.0203 31.6859L44.2985 33.0078C43.4758 33.8586 42.4914 34.2805 42.4563 34.2945C41.9289 34.5055 41.6547 35.0961 41.8305 35.6375C41.9641 36.0523 42.3508 36.3266 42.7797 36.3266C42.9133 36.3266 43.0399 36.2984 43.1664 36.2492C43.2367 36.2211 44.882 35.5461 46.1125 34.0555L52.8836 37.993L46.1125 41.9305C44.882 40.4398 43.2438 39.7648 43.1664 39.7367C43.0399 39.6875 42.9133 39.6594 42.7797 39.6594C42.3508 39.6594 41.9641 39.9406 41.8305 40.3484C41.6547 40.8898 41.9289 41.4734 42.4563 41.6914C42.4914 41.7055 43.4758 42.1273 44.2985 42.9781L42.0203 44.3C41.5141 44.5953 41.3453 45.2422 41.6336 45.7484C41.8235 46.0789 42.175 46.2828 42.5547 46.2828C42.7375 46.2828 42.9274 46.2336 43.0891 46.1422L45.3602 44.8203C45.6836 45.9805 45.543 47.0562 45.543 47.0703C45.4586 47.6328 45.8313 48.1742 46.3867 48.2867C46.457 48.3008 46.5274 48.3078 46.5977 48.3078C47.0969 48.3078 47.5117 47.9422 47.5891 47.4359C47.6031 47.3586 47.8422 45.6078 47.1602 43.7656L53.9102 39.8281V46.8031C52.0188 47.1336 50.6195 48.2234 50.5563 48.2727C50.3383 48.4484 50.1977 48.6945 50.1766 48.9758C50.1555 49.257 50.2399 49.5242 50.4297 49.7352C50.6336 49.9602 50.9219 50.0938 51.2313 50.0938C51.4703 50.0938 51.7094 50.0094 51.8992 49.8617C51.9063 49.8547 52.7641 49.2008 53.9102 48.9055V51.5422C53.9102 52.1187 54.4094 52.6039 55 52.6039C55.5906 52.6039 56.0899 52.1187 56.0899 51.5422V48.9055C57.2359 49.2008 58.0867 49.8547 58.1008 49.8617C58.2906 50.0094 58.5297 50.0938 58.7688 50.0938C59.0781 50.0938 59.3664 49.9602 59.5703 49.7352C59.7602 49.5242 59.8516 49.243 59.8234 48.9688C59.8024 48.6945 59.6617 48.4484 59.4438 48.2727C59.3805 48.2234 57.9813 47.1336 56.0899 46.8031V39.8281L62.8399 43.7656C62.1649 45.5938 62.4039 47.3586 62.418 47.4359C62.4883 47.9422 62.9031 48.3078 63.4024 48.3078C63.4727 48.3078 63.543 48.3008 63.6133 48.2867C64.1688 48.1742 64.5344 47.6398 64.457 47.0703C64.45 47.0352 64.3234 45.9664 64.6399 44.8203L66.9039 46.1422C67.0656 46.2336 67.2484 46.2828 67.4383 46.2828C67.818 46.2828 68.1695 46.0789 68.3594 45.7484C68.6477 45.2633 68.4789 44.6094 67.9727 44.3141Z" fill="#2F80ED"/>
<path d="M18.4863 22.157L17.3473 21.4961C17.7621 21.0637 18.2613 20.8563 18.2684 20.8527C18.532 20.7473 18.6691 20.452 18.5813 20.1813C18.5145 19.9738 18.3211 19.8367 18.1066 19.8367C18.0398 19.8367 17.9766 19.8508 17.9133 19.8754C17.8781 19.8895 17.0555 20.227 16.4402 20.9723L13.0547 19.0035L16.4402 17.0348C17.0555 17.7801 17.8746 18.1176 17.9133 18.1316C17.9766 18.1562 18.0398 18.1703 18.1066 18.1703C18.3211 18.1703 18.5145 18.0297 18.5813 17.8258C18.6691 17.5551 18.532 17.2598 18.2684 17.1543C18.2648 17.1508 17.7656 16.9434 17.3473 16.5109L18.4863 15.85C18.7395 15.7023 18.8238 15.3789 18.6797 15.1258C18.5848 14.9605 18.409 14.8586 18.2191 14.8586C18.1277 14.8586 18.0328 14.8832 17.952 14.9289L16.8199 15.5898C16.6617 15.0203 16.725 14.4859 16.7285 14.4648C16.7672 14.1801 16.5844 13.9164 16.3066 13.8566C16.2715 13.8496 16.2363 13.8461 16.2012 13.8461C15.9516 13.8461 15.7441 14.0289 15.7055 14.282C15.6984 14.3207 15.5789 15.1961 15.9199 16.1172L12.5449 18.0859V14.5984C13.4906 14.4332 14.1902 13.8883 14.2219 13.8637C14.3309 13.7758 14.4012 13.6527 14.4117 13.5121C14.4223 13.3715 14.3801 13.2379 14.2852 13.1324C14.1832 13.0199 14.0391 12.9531 13.8844 12.9531C13.7648 12.9531 13.6453 12.9953 13.5504 13.0691C13.5469 13.0727 13.1215 13.3996 12.5449 13.5473V12.2184C12.5449 11.9301 12.2953 11.6875 12 11.6875C11.7047 11.6875 11.4551 11.9301 11.4551 12.2184V13.5367C10.882 13.3891 10.4566 13.0621 10.4496 13.0586C10.3547 12.9848 10.2387 12.9426 10.1156 12.9426C9.96094 12.9426 9.8168 13.0094 9.71485 13.1219C9.61993 13.2273 9.57422 13.368 9.58829 13.5051C9.59883 13.6422 9.66915 13.7652 9.77813 13.8531C9.80977 13.8777 10.5094 14.4227 11.4551 14.5879V18.0754L8.08008 16.1066C8.41758 15.1926 8.29805 14.3102 8.29102 14.2715C8.25587 14.0184 8.04844 13.8355 7.79883 13.8355C7.76368 13.8355 7.72852 13.8391 7.69337 13.8461C7.41563 13.9023 7.2293 14.173 7.27149 14.4543C7.27149 14.4613 7.3418 14.9992 7.18008 15.5758L6.04454 14.9219C5.96368 14.8762 5.87227 14.8516 5.77735 14.8516C5.58751 14.8516 5.41173 14.9535 5.3168 15.1188C5.17266 15.3719 5.25704 15.6988 5.51016 15.843L6.64923 16.5039C6.2379 16.9293 5.74571 17.1402 5.72813 17.1473C5.46446 17.2527 5.32735 17.548 5.41524 17.8187C5.48204 18.0262 5.6754 18.1633 5.88985 18.1633C5.95665 18.1633 6.01993 18.1492 6.08321 18.1246C6.11837 18.1105 6.94102 17.773 7.55626 17.0277L10.9418 18.9965L7.55626 20.9652C6.94102 20.2199 6.12188 19.8824 6.08321 19.8684C6.01993 19.8438 5.95665 19.8297 5.88985 19.8297C5.6754 19.8297 5.48204 19.9703 5.41524 20.1742C5.32735 20.4449 5.46446 20.7367 5.72813 20.8457C5.74571 20.8527 6.2379 21.0637 6.64923 21.4891L5.51016 22.15C5.25704 22.2977 5.17266 22.6211 5.3168 22.8742C5.41173 23.0395 5.58751 23.1414 5.77735 23.1414C5.86876 23.1414 5.96368 23.1168 6.04454 23.0711L7.18008 22.4102C7.3418 22.9902 7.27149 23.5281 7.27149 23.5352C7.2293 23.8164 7.41563 24.0871 7.69337 24.1434C7.72852 24.1504 7.76368 24.1539 7.79883 24.1539C8.04844 24.1539 8.25587 23.9711 8.29454 23.718C8.30157 23.6793 8.4211 22.8039 8.08008 21.8828L11.4551 19.9141V23.4016C10.5094 23.5668 9.80977 24.1117 9.77813 24.1363C9.66915 24.2242 9.59883 24.3473 9.58829 24.4879C9.57774 24.6285 9.61993 24.7621 9.71485 24.8676C9.8168 24.9801 9.96094 25.0469 10.1156 25.0469C10.2352 25.0469 10.3547 25.0047 10.4496 24.9309C10.4531 24.9273 10.882 24.6004 11.4551 24.4527V25.7711C11.4551 26.0594 11.7047 26.302 12 26.302C12.2953 26.302 12.5449 26.0594 12.5449 25.7711V24.4527C13.118 24.6004 13.5434 24.9273 13.5504 24.9309C13.6453 25.0047 13.7648 25.0469 13.8844 25.0469C14.0391 25.0469 14.1832 24.9801 14.2852 24.8676C14.3801 24.7621 14.4258 24.6215 14.4117 24.4844C14.4012 24.3473 14.3309 24.2242 14.2219 24.1363C14.1902 24.1117 13.4906 23.5668 12.5449 23.4016V19.9141L15.9199 21.8828C15.5824 22.7969 15.702 23.6793 15.709 23.718C15.7441 23.9711 15.9516 24.1539 16.2012 24.1539C16.2363 24.1539 16.2715 24.1504 16.3066 24.1434C16.5844 24.0871 16.7672 23.8199 16.7285 23.5352C16.725 23.5176 16.6617 22.9832 16.8199 22.4102L17.952 23.0711C18.0328 23.1168 18.1242 23.1414 18.2191 23.1414C18.409 23.1414 18.5848 23.0395 18.6797 22.8742C18.8238 22.6316 18.7395 22.3047 18.4863 22.157Z" fill="#2F80ED"/>
</svg>
