<svg width="84" height="64" viewBox="0 -24 10 64" fill="none" xmlns="http://www.w3.org/2000/svg">
<path d="M18 27.2109C17.4023 27.2109 16.9172 27.6961 16.9172 28.2937V31.5422C16.9172 32.1398 17.4023 32.625 18 32.625C18.5977 32.625 19.0828 32.1398 19.0828 31.5422V28.2937C19.0828 27.6961 18.5977 27.2109 18 27.2109ZM18 3.375C17.4023 3.375 16.9172 3.86016 16.9172 4.45781V7.70625C16.9172 8.30391 17.4023 8.78906 18 8.78906C18.5977 8.78906 19.0828 8.30391 19.0828 7.70625V4.45781C19.0828 3.86016 18.5977 3.375 18 3.375ZM8.78906 18C8.78906 17.4023 8.30391 16.9172 7.70625 16.9172H4.45781C3.86016 16.9172 3.375 17.4023 3.375 18C3.375 18.5977 3.86016 19.0828 4.45781 19.0828H7.70625C8.30391 19.0828 8.78906 18.5977 8.78906 18ZM31.5422 16.9172H28.2937C27.6961 16.9172 27.2109 17.4023 27.2109 18C27.2109 18.5977 27.6961 19.0828 28.2937 19.0828H31.5422C32.1398 19.0828 32.625 18.5977 32.625 18C32.625 17.4023 32.1398 16.9172 31.5422 16.9172ZM10.7227 24.1945C10.4344 24.1945 10.1602 24.307 9.95625 24.5109L7.65703 26.8102C7.45312 27.0141 7.34063 27.2883 7.34063 27.5766C7.34063 27.8648 7.45312 28.1391 7.65703 28.343C7.86094 28.5469 8.13516 28.6594 8.42344 28.6594C8.71172 28.6594 8.98594 28.5469 9.18984 28.343L11.4891 26.0437C11.9109 25.6219 11.9109 24.9328 11.4891 24.5109C11.2852 24.307 11.0109 24.1945 10.7227 24.1945ZM25.2773 11.8055C25.5656 11.8055 25.8398 11.693 26.0437 11.4891L28.343 9.18984C28.5469 8.98594 28.6594 8.71172 28.6594 8.42344C28.6594 8.13516 28.5469 7.86094 28.343 7.65703C28.1391 7.45312 27.8648 7.34063 27.5766 7.34063C27.2883 7.34063 27.0141 7.45312 26.8102 7.65703L24.5109 9.95625C24.307 10.1602 24.1945 10.4344 24.1945 10.7227C24.1945 11.0109 24.307 11.2852 24.5109 11.4891C24.7148 11.693 24.9891 11.8055 25.2773 11.8055ZM9.18984 7.65703C8.98594 7.45312 8.71172 7.34063 8.42344 7.34063C8.13516 7.34063 7.86094 7.45312 7.65703 7.65703C7.45312 7.86094 7.34063 8.13516 7.34063 8.42344C7.34063 8.71172 7.45312 8.98594 7.65703 9.18984L9.95625 11.4891C10.1602 11.693 10.4344 11.8055 10.7227 11.8055C11.0109 11.8055 11.2852 11.693 11.4891 11.4891C11.693 11.2852 11.8055 11.0109 11.8055 10.7227C11.8055 10.4344 11.693 10.1602 11.4891 9.95625L9.18984 7.65703ZM26.0437 24.5109C25.8398 24.307 25.5656 24.1945 25.2773 24.1945C24.9891 24.1945 24.7148 24.307 24.5109 24.5109C24.0891 24.9328 24.0891 25.6219 24.5109 26.0437L26.8102 28.343C27.0141 28.5469 27.2883 28.6594 27.5766 28.6594C27.8648 28.6594 28.1391 28.5469 28.343 28.343C28.5469 28.1391 28.6594 27.8648 28.6594 27.5766C28.6594 27.2883 28.5469 27.0141 28.343 26.8102L26.0437 24.5109ZM18 11.25C14.2805 11.25 11.25 14.2805 11.25 18C11.25 21.7195 14.2805 24.75 18 24.75C21.7195 24.75 24.75 21.7195 24.75 18C24.75 14.2805 21.7195 11.25 18 11.25Z" fill="#F2C94C"/>
</svg>
