<svg width="84" height="64" viewBox="0 0 84 64" fill="none" xmlns="http://www.w3.org/2000/svg">
<path d="M13.4531 11.4375C11.5391 11.4375 9.95859 12.9533 9.95859 14.7586C9.95859 14.8678 9.9668 14.977 9.98047 15.0836C8.79922 15.1826 7.875 16.2008 7.875 17.3281C7.875 18.5215 8.91133 19.5625 10.1883 19.5625H17.2375C18.8316 19.5625 20.125 18.3082 20.125 16.8203C20.125 15.3324 18.8316 14.0578 17.2375 14.0578C17.1746 14.0578 17.1063 14.0527 17.0406 14.0527C16.9832 14.0527 16.9258 14.0527 16.8738 14.0553C16.5512 12.6969 15.3672 11.4375 13.4531 11.4375Z" fill="#9A99A2"/>
<path d="M62.075 37.1023L61.1398 37.0953C60.3172 33.3265 57.2656 30.5 52.3437 30.5C47.4219 30.5 43.3578 34.0437 43.3578 39.043L43.3789 39.3805C40.4117 39.7742 38 42.5656 38 45.6875C38 48.9922 40.6648 51.875 43.9554 51.875H52.3437L53.314 48.3172H48.6172C48.4344 48.3172 48.3008 48.1484 48.3429 47.9726L49.9742 40.0273C50.0023 39.9008 50.1148 39.8094 50.2484 39.8094H56.3023C56.4922 39.8094 56.6258 39.9922 56.5695 40.175L54.9875 45.4414H59.2133C59.4312 45.4414 59.5719 45.6875 59.4523 45.8703L55.6765 51.875H61.5547C66.6172 51.875 69.5 48.2187 69.5 44.1406C69.5 40.0203 66.1742 37.1023 62.075 37.1023ZM50.2906 59.3914C50.2062 59.7008 50.6281 59.8836 50.7969 59.6164L55.6765 51.875H52.3437L50.2906 59.3914Z" fill="#828282"/>
</svg>
