<svg width="84" height="64" viewBox="0 0 84 64" fill="none" xmlns="http://www.w3.org/2000/svg">
<path d="M66.2109 22.1875C61.6992 22.1875 57.9738 26.0354 57.9738 30.618C57.9738 30.8951 57.9932 31.1723 58.0254 31.443C55.241 31.6943 53.0625 34.2789 53.0625 37.1406C53.0625 40.1699 55.5053 42.8125 58.5152 42.8125H75.1313C78.8889 42.8125 81.9375 39.6285 81.9375 35.8516C81.9375 32.0746 78.8889 28.8391 75.1313 28.8391C74.983 28.8391 74.8219 28.8262 74.6672 28.8262C74.5318 28.8262 74.3965 28.8262 74.274 28.8326C73.5135 25.3844 70.7227 22.1875 66.2109 22.1875Z" fill="#BDBDBD"/>
<path d="M15.4531 13.4375C13.5391 13.4375 11.9586 14.9533 11.9586 16.7586C11.9586 16.8678 11.9668 16.977 11.9805 17.0836C10.7992 17.1826 9.875 18.2008 9.875 19.3281C9.875 20.5215 10.9113 21.5625 12.1883 21.5625H19.2375C20.8316 21.5625 22.125 20.3082 22.125 18.8203C22.125 17.3324 20.8316 16.0578 19.2375 16.0578C19.1746 16.0578 19.1063 16.0527 19.0406 16.0527C18.9832 16.0527 18.9258 16.0527 18.8738 16.0553C18.5512 14.6969 17.3672 13.4375 15.4531 13.4375Z" fill="#BDBDBD"/>
</svg>
