<svg width="87" height="92" viewBox="0 0 87 92" fill="none" xmlns="http://www.w3.org/2000/svg">
<path d="M77.5426 51.2641C75.2418 49.1328 72.1418 47.9582 68.8117 47.9582H68.1336C67.3465 45.1125 65.7844 42.6906 63.5805 40.9105C61.0012 38.8398 57.6348 37.75 53.8324 37.75C49.8727 37.75 46.1793 39.1668 43.4184 41.734C40.6574 44.3012 39.1195 47.7887 39.0469 51.591C36.9277 52.0754 34.9781 53.25 33.4766 54.9695C31.757 56.9313 30.8125 59.4016 30.8125 61.9203C30.8125 67.3211 35.0387 71.9227 40.1852 72.3344L37.2547 76.2578C36.9641 76.6453 36.8551 77.1297 36.9277 77.602C37.0004 78.0742 37.2668 78.486 37.6543 78.7645C37.957 78.9824 38.3203 79.0914 38.6957 79.0914C39.3254 79.0914 39.8824 78.8371 40.2094 78.3891L44.702 72.3344H48.9523L42.2559 81.4285C41.9773 81.816 41.8441 82.2641 41.9047 82.7121C41.9652 83.1844 42.2195 83.6082 42.6191 83.8988C43.043 84.2016 43.5273 84.2379 43.709 84.2379C44.5809 84.2379 45.0652 83.8141 45.3316 83.4629L53.4934 72.3465H57.6953L54.7891 76.2578C54.4984 76.6574 54.3773 77.1297 54.4621 77.602C54.5348 78.0742 54.8012 78.486 55.1887 78.7645C55.4914 78.9824 55.8547 79.0914 56.2301 79.0914C56.8598 79.0914 57.4168 78.8371 57.7437 78.3891L62.2242 72.3344H66.4746L59.7781 81.4285C59.4996 81.816 59.3664 82.2762 59.4269 82.7121C59.4875 83.1723 59.7418 83.584 60.1414 83.8746C60.4562 84.1047 60.8559 84.2379 61.2191 84.2379C61.8367 84.2379 62.3937 83.9715 62.7328 83.5113L71.173 71.9953C73.8855 71.4504 76.3801 69.9852 78.2086 67.8176C80.134 65.541 81.1996 62.659 81.1996 59.6922C81.1875 56.4469 79.8918 53.4438 77.5426 51.2641Z" fill="#F2F2F2"/>
</svg>
