<svg width="84" height="64" viewBox="0 0 84 64" fill="none" xmlns="http://www.w3.org/2000/svg">
<g clip-path="url(#clip0_1_231)">
<path d="M70.8654 43.1833C70.9541 39.3663 69.6973 35.8549 67.3086 33.2582C67.6627 32.6426 67.5733 31.8711 67.0611 31.4207C66.5489 30.9704 65.777 30.9751 65.2117 31.405C62.2985 29.3301 58.662 28.4825 54.9307 29.031C51.081 29.597 48.0251 30.964 45.3123 34.0278C45.2838 34.0495 45.246 34.0819 45.2042 34.1294C45.0609 34.303 45.0775 34.561 45.2412 34.7049L45.4049 34.8489C45.5422 34.9696 45.7472 34.9813 45.9049 34.8765C46.5164 34.4686 47.2352 34.258 47.9337 34.273C48.642 34.2873 49.2857 34.5349 49.7979 34.9853C50.3048 35.431 50.6327 36.0377 50.7328 36.7437C50.837 37.4345 50.7148 38.1698 50.3937 38.8331C50.3099 39.0029 50.3478 39.2047 50.4851 39.3254L50.7385 39.5483C50.8758 39.669 51.0808 39.6807 51.2385 39.576C52.5099 38.7371 54.1124 38.7886 55.1421 39.694C55.9235 40.3812 56.2727 41.4747 56.0736 42.5637L49.2112 50.3678C48.7515 50.8905 47.953 50.9468 47.4408 50.4964C46.9287 50.046 46.8876 49.2515 47.3473 48.7288C47.7048 48.3222 47.6752 47.7063 47.2739 47.3535C46.8779 47.0052 46.2633 47.0547 45.9058 47.4612C44.7264 48.8024 44.8366 50.828 46.1408 51.9749C47.4503 53.1263 49.4681 52.9719 50.6474 51.6307L57.482 43.8583C58.5743 43.4892 59.6877 43.6818 60.4797 44.3782C60.9866 44.824 61.3092 45.426 61.414 46.1267C61.5129 46.8129 61.3907 47.5481 61.0696 48.2114C60.9858 48.3812 61.0237 48.583 61.161 48.7038L61.4144 48.9266C61.5517 49.0473 61.7567 49.0591 61.9144 48.9543C62.5259 48.5464 63.2494 48.3305 63.9479 48.3455C64.6562 48.3598 65.3045 48.6021 65.8167 49.0525C66.3289 49.5029 66.6621 50.1142 66.7622 50.8202C66.8664 51.511 66.7395 52.2515 66.4131 52.9102C66.3294 53.08 66.3673 53.2818 66.5045 53.4025L66.5837 53.4722C66.6682 53.5465 66.7753 53.5844 66.8891 53.5722C67.0029 53.5599 67.1042 53.5085 67.1785 53.424C69.8246 50.3297 70.7731 47.1002 70.8654 43.1833Z" fill="#333333"/>
</g>
</svg>
